<?xml version="1.0" encoding="UTF-8"?>
<!DOCTYPE svg PUBLIC "-//W3C//DTD SVG 1.1//EN" "http://www.w3.org/Graphics/SVG/1.1/DTD/svg11.dtd">
<!-- Creator: CorelDRAW 2019 (64-Bit) -->
<svg xmlns="http://www.w3.org/2000/svg" xml:space="preserve" width="98px" height="152px" version="1.1" style="shape-rendering:geometricPrecision; text-rendering:geometricPrecision; image-rendering:optimizeQuality; fill-rule:evenodd; clip-rule:evenodd"
viewBox="0 0 98 152.2"
 xmlns:xlink="http://www.w3.org/1999/xlink">
 <defs>
  <style type="text/css">
   <![CDATA[
    .fil0 {fill:black}
    .fil1 {fill:#009645}
    .fil6 {fill:#101010}
    .fil4 {fill:#254796}
    .fil5 {fill:#E21F25}
    .fil7 {fill:#E3E3E3}
    .fil3 {fill:#FDED01}
    .fil2 {fill:white}
   ]]>
  </style>
 </defs>
 <g id="Layer_x0020_1">
  <metadata id="CorelCorpID_0Corel-Layer"/>
  <g id="_1750668898144">
   <path class="fil0" d="M42.9 93.8c-0.48,-2.85 0.55,-7.43 1.27,-10.02 0.99,-3.5 1.76,-4.75 2.61,-8.85 1.06,-5.07 1.68,-9.93 2.15,-15.08 0.16,-1.77 0.19,-3.57 0.36,-5.33 0.65,0.18 2.34,1.48 2.85,1.87 2.52,1.93 2.69,3.03 6.75,5.17 0.27,0.15 1.44,0.69 1.59,0.8 0.39,0.33 2.98,14.07 3.25,15.75 0.42,2.62 1.35,8.1 0.3,10.69 -0.36,0.87 -0.52,0.69 -1.52,0.87 -1.34,0.23 -2.66,0.48 -4,0.76 -2.62,0.55 -5.23,1.13 -7.85,1.7 -1.79,0.38 -6.29,1.45 -7.76,1.67zm-9.78 0.59c-0.7,-0.43 -1.21,-1.29 -1.77,-2.05 -2.58,-3.52 -5.44,-8.52 -6.23,-12.85 -0.18,-0.99 -0.41,-2.37 -0.44,-3.37 -0.04,-1.34 0.41,-2.09 1.21,-2.57l0.24 0.4c0.9,1.96 1.66,3.46 3.07,5.16 0.34,0.41 0.66,0.83 1,1.23 0.88,1.06 2.34,2.5 3.11,3.43 0.76,0.91 3.43,3.56 3.32,5.41 -0.05,0.72 -0.48,1.08 -0.79,1.42 -0.88,1 -1.17,1.35 -1.93,2.46 -0.2,0.29 -0.61,1.14 -0.79,1.33zm-9.35 -21.25c-0.88,0.1 -1.13,-0.57 -1.27,-1.32 -0.17,-1 -0.12,-1.59 1.05,-1.43 0.44,0.43 0.59,2.1 0.22,2.75zm0.97 -0.16c-0.16,-0.21 -0.17,-0.34 -0.24,-0.62 -0.17,-0.72 -0.51,-1.83 0.19,-1.95l0.66 1.78c-0.17,0.31 -0.3,0.62 -0.61,0.79zm-2.85 -2.41c0.19,0.17 0.26,1.55 0.25,1.79 -0.44,-0.12 -0.61,-0.48 -0.81,-0.84 -0.15,-0.26 -0.41,-0.75 -0.39,-1.05 0.32,-0.04 0.7,-0.03 0.95,0.1zm2.27 -1.71l0.32 1 -0.34 -0.12 0.02 -0.88zm-2.21 -1.21c0.02,0.41 0,1.38 -0.06,1.77 -0.09,0.54 -0.6,0.81 -1.03,0.42 -0.57,-0.5 -0.07,-2.52 0.08,-3.16l0.98 0.06 0.03 0.91zm-17.82 -3.11c0.87,-0.17 1.78,0.46 2.39,1.03 1.57,1.49 1.41,3.17 0.22,4.85 -0.23,0.32 -0.54,0.68 -0.86,0.91 -0.38,0.27 -0.7,0.38 -1.29,0.37 -3.99,-0.06 -4.84,-4.31 -1.69,-6.67 0.38,-0.28 0.65,-0.37 1.23,-0.49zm42.6 0.56c0.16,1.01 0,1.96 -0.3,2.87 -1.09,3.27 -1.26,3.21 -3.39,3.12 -0.86,-0.04 -2.07,-0.11 -2.8,-0.41 -1.85,-0.77 1.68,-2.84 2.3,-3.22 0.64,-0.41 3.63,-2.2 4.19,-2.36zm-25.71 1.19c-0.02,-0.29 0.24,-1.11 0.44,-1.38 0.09,-0.11 0.03,-0.03 0.14,-0.11 0.14,0.65 0.57,1.67 -0.58,1.49zm2.31 0.1c-1.22,0.4 -1.34,-0.7 -1.41,-1.73 -0.04,-0.69 -0.14,-0.94 0.1,-1.57 0.16,-0.42 0.14,-0.97 0.3,-1.35l1.01 4.65zm-3.23 -8.17c1.09,-0.33 1.32,0.95 0.61,1.24 -1.06,0.43 -1.52,-0.97 -0.61,-1.24zm53.31 -0.73c0.55,-0.31 1.07,-0.86 1.42,0.13 0.19,0.52 0.38,1.42 0.4,2.01 -0.34,0.01 -1.03,-0.48 -1.24,-0.7 -0.24,-0.25 -0.53,-1.05 -0.58,-1.44zm1.77 -0.85c1.25,-0.8 1.43,0.08 1.62,0.7 0.28,0.93 0.29,1.79 -0.62,2.02 -0.38,-0.04 -1.13,-1.92 -1,-2.72zm1.7 -0.6c0.27,-0.16 0.59,-0.42 0.97,-0.45 0.09,0.71 0.13,2.01 -0.45,2.31 -0.15,-0.49 -0.49,-1.29 -0.52,-1.86zm-5.65 1.32c-0.25,-0.71 -0.42,-1.09 -0.5,-2.01 -0.02,-0.25 -0.06,-1.09 0.02,-1.29 0.09,-0.25 0.77,-0.2 1.08,-0.21 0.21,0.72 1.03,2.6 0.99,3.27 -0.5,0.25 -1,0.28 -1.59,0.24zm1.16 -3.71c0.24,-0.18 0.53,-0.27 0.87,-0.29 0.26,0.47 0.4,0.77 0.6,1.39 0.12,0.36 0.45,1.26 0.5,1.52 -0.23,0.26 -0.53,0.5 -1.03,0.53 -0.38,-0.74 -0.99,-2.1 -0.94,-3.15zm-1.55 -0.25c0.03,-0.5 0.17,-1.81 0.4,-2.1 0.15,0.21 0.43,1.67 0.38,2.04l-0.78 0.06zm4.46 -1.07c0.36,-0.11 0.48,-0.3 0.88,-0.37 0.56,0.44 0.65,0.79 1.02,1.52 0.24,0.47 0.87,1.38 0.13,1.78 -0.72,0.38 -1.08,-0.62 -1.29,-1.08 -0.22,-0.45 -0.68,-1.33 -0.74,-1.85zm-0.15 -1.72c0.28,0.26 0.67,0.6 0.8,0.96 -0.3,0.15 -0.47,0.21 -0.84,0.09 -0.23,-0.34 -0.31,-0.87 -0.34,-1.32 0.21,0.1 0.01,-0.03 0.22,0.12 0.03,0.02 0.12,0.11 0.16,0.15zm-2.62 -3c0.3,0.06 0.35,0.25 0.51,0.5 0.78,1.24 0.68,0.55 1.23,1.99 0.17,0.44 0.46,1.17 0.42,1.7 -0.04,0.66 -0.54,0.95 -1.19,0.76 -0.19,-0.38 -0.5,-1.8 -0.65,-2.35 -0.18,-0.71 -0.4,-1.8 -0.32,-2.6zm-10.21 8.02c-0.42,0.05 -0.52,-0.18 -0.87,-1.09 -1.33,-3.48 -1.35,-8.5 -0.52,-12.04l4 0.56c0.76,2.63 0.59,4.74 -0.64,6.78 -0.54,0.9 -1.19,1.53 -1.68,2.47 -0.9,1.71 -0.24,2.5 -0.29,3.32zm29.4 -13c1.07,-0.2 2.15,0.15 2.92,0.64 2.7,1.69 2.72,5.07 -0.53,6.55 -1.79,0.81 -4.12,-1.29 -4.55,-2.4 -0.41,-1.06 -0.18,-2.06 0.26,-2.97 0.41,-0.87 0.88,-1.63 1.9,-1.82zm-65.56 1.53c-0.15,-0.75 0.09,-1.23 0.69,-1.37 0.13,0.39 0.42,0.73 0.22,1.19 -0.18,0.41 -0.5,0.43 -0.91,0.18zm-5.55 -3.83c2.06,-0.43 1.16,4.01 1.05,4.24 -0.19,0.38 -0.62,0.78 -1.16,0.83 -0.86,0.08 -1.48,-1.61 -1.49,-2.59 -0.01,-1.3 0.53,-2.26 1.6,-2.48zm30.77 0.95c0.26,0.01 1.37,0.42 1.82,0.52 2.02,0.44 4.52,0.53 6.6,0.57 -0.07,0.31 -0.24,0.69 -0.34,1.01 -0.91,2.91 -1.07,5.5 -0.63,8.57 0.22,1.57 0.56,3.08 0.91,4.61 0.17,0.74 0.37,1.46 0.56,2.21 0.18,0.74 0.45,1.49 0.59,2.2 -1.13,-0.26 -3.59,-1.68 -4.6,-2.42 -0.49,-0.36 -0.83,-0.7 -1.24,-1.06l-2.43 -2.27c-0.23,-0.2 -0.34,-0.35 -0.58,-0.57l-1.2 -1.11c-0.22,-0.2 -0.42,-0.34 -0.6,-0.58l0.62 -5.54c0.21,-1.91 0.36,-3.72 0.5,-5.65 -0.06,0.12 -0.47,2.28 -0.58,2.71 -0.24,0.9 -0.48,1.67 -0.78,2.52 -0.79,2.2 -0.9,2.67 -1.45,4.69l-0.09 0.23c-0.01,-0.01 -0.03,0.04 -0.04,0.06 -1.25,-0.75 -2.94,-3.22 -3.56,-4.84 -0.7,-1.86 -1.02,-5.17 -0.1,-7.07l5.04 0.83c0.42,0.07 1.25,0.15 1.58,0.38zm-26.37 -4.17c0.55,-0.11 0.63,0.01 0.9,0.38 0.2,0.27 0.39,0.48 0.55,0.83 0.37,0.8 -0.01,1.66 -0.32,2.27 -0.37,0.74 -1.52,3.52 -1.78,3.84 -0.21,0.26 -1.49,1.03 -0.88,-0.95 0.72,-2.34 -0.54,-3.56 0.05,-5.03 0.13,-0.31 0.36,-0.64 0.51,-0.88 0.27,-0.42 0.4,-0.34 0.97,-0.46zm-3.87 1.15c-0.09,-1.05 1,-1.16 1.22,-0.68 0.14,0.32 -0.05,0.71 -0.27,0.81 -0.36,0.15 -0.7,-0.01 -0.95,-0.13zm40.48 -3.96c0.13,1.42 -0.36,5.46 -1.11,6.29 -1,1.12 -4.41,0.08 -6.1,-0.23 -0.83,-0.15 -2.46,-0.32 -2.7,-0.99 -0.12,-0.34 0.04,-2.98 0.11,-3.48 0.21,-1.62 0.93,-4.49 1.54,-5.82 0.98,0.14 3.5,1.48 4.38,1.96 1.57,0.85 2.51,1.59 3.68,2.7 0.16,-0.17 0.09,-0.22 0.2,-0.43zm-26.96 -0.68c-0.54,-0.41 -0.48,-1.07 -0.62,-1.81 -0.06,-0.34 -0.18,-0.55 -0.24,-0.91 -0.06,-0.33 -0.08,-0.7 -0.13,-1.02 -0.08,-0.43 -0.25,-0.6 -0.26,-0.99 -0.01,-0.37 -0.01,-0.73 -0.03,-1.11 -0.16,-3.08 0.08,-2.12 0.3,-4.33 0.17,-1.75 0.23,-2.17 0.82,-3.87l0.61 -1.48c0.09,-0.21 0.02,-0.06 0.09,-0.16 0.44,0.03 0.31,0.03 0.42,0.6 0.62,3.33 3.01,5.38 3.69,7.84 0.51,1.83 0.1,3.37 -1.07,4.71 -0.2,0.24 -0.46,0.57 -0.74,0.8 -1.38,1.1 -1.22,0.76 -1.87,1.2 -0.36,0.24 -0.4,0.46 -0.97,0.53zm18.84 -7.29c0.81,-0.79 2.93,-0.81 4.07,-0.87 1.45,-0.07 3.17,-0.24 4.62,-0.17 2.39,0.1 1.07,1.57 0.54,2.68 -0.58,1.2 -0.88,2.44 -0.89,3.98l-1.95 -1.53c-0.65,-0.46 -1.39,-0.9 -2.17,-1.29 -1.2,-0.6 -4.2,-1.62 -4.22,-2.8zm4.57 -1.32c-0.01,-0.75 1.25,-1.54 2.1,-1.75 1.13,-0.27 2.4,0.31 2.46,1.23 -0.51,0.35 -3.72,0.61 -4.56,0.52zm-12.34 -8.66c-0.19,-0.86 -0.06,-1.7 -0.27,-2.56 -0.13,-0.5 -0.24,-0.59 -0.03,-1.04 0.35,-0.73 1.27,-2.11 1.77,-2.47 0.33,-0.23 1.39,-0.89 1.78,-1.01 0.38,0.87 2.72,3.71 2.85,4.64 -1.34,0.66 -4.65,2.24 -6.1,2.44zm-3.77 -5.19c0.45,-0.51 0.8,-0.62 1.62,-0.63 0.88,-0.02 1.16,0.42 0.84,1.28 -0.61,1.64 -2.41,0.32 -2.46,-0.65zm7.63 -2.19c0.44,-0.47 3.61,-1.85 4.49,-2.18 1.65,-0.63 3.24,-1.17 4.98,-1.64 4.44,-1.18 7.49,-0.95 10.43,1.51 1.2,1.01 1.98,2.54 2.74,3.95 0.47,0.89 0.67,1.42 0.76,2.58 0.68,8.33 -4.11,3.19 -6.38,6.74 -0.62,0.97 -0.46,1.62 -0.48,2.83 -0.9,0.33 -1.83,1.26 -3.08,1.25 -0.33,-0.7 -0.64,-1.4 -1.94,-1.43 -1.26,-0.04 -1.68,0.44 -2.46,0.9 -0.18,-0.13 -0.32,-0.42 -0.46,-0.59 -0.19,-0.22 -0.31,-0.38 -0.5,-0.58 -0.4,-0.43 -0.86,-0.72 -1.15,-1.04 0.22,-0.34 0.52,-0.38 0.62,-0.67 -0.25,-0.01 -0.38,0.15 -0.54,0.26 -0.38,0.29 -0.23,0.32 -0.23,0.46 -0.84,0.61 -3.34,1.52 -3.41,-0.35 0.54,-0.58 0.93,-0.34 0.93,0.1 -0.21,-0.02 -0.15,-0.13 -0.41,-0.27 -0.94,0.32 0.11,1.14 0.84,1.13 0.77,-0.01 1.57,-0.41 1.91,-0.81 -0.61,-0.53 -2.25,-1.09 -3.29,-1.08 -1.49,0.02 -2.09,0.93 -3.03,1.28 -1.55,0.58 -3.64,-1.83 -3.77,-2.56 -0.08,-0.43 -0.14,-1.55 -0.1,-2 2.04,-0.93 4.63,-1.4 6.58,-2.78 -0.15,-0.97 -2.61,-4.01 -3.05,-5.01zm18 -7.86c0.87,-0.25 0.87,0.66 0.78,1.37 -0.08,0.68 -0.55,1.09 -1.28,0.9 -1.8,-0.46 -0.7,-1.94 0.5,-2.27zm-20.53 8.62c-1.41,-0.09 -2.52,-0.28 -3.98,-0.02 -1.03,0.18 -2.53,0.76 -2.5,1.8 0.04,1.61 3.44,3.11 3.89,4.66 0.69,2.42 1.81,4.71 3.55,6.04 0.23,0.18 0.37,0.29 0.62,0.46 0.46,0.3 0.87,0.58 1.32,0.84 4.3,2.45 2.72,1.39 -1.98,4.78 -1.6,1.16 -2.68,2.22 -3.84,3.78 -3.72,5.05 -2.13,12.61 -0.59,18.61 0.48,1.89 1.37,4.31 1.43,6.2 0.07,2.26 -0.71,4.34 -1.66,5.9 -0.26,0.43 -0.45,0.71 -0.74,1.11 -0.69,0.96 -1.89,2.37 -2.85,2.91 -0.66,-0.6 -1.84,-5.27 -2.09,-6.13 -0.32,-1.06 -0.66,-2.01 -0.94,-3.15 -0.28,-1.15 -0.44,-2.29 -0.63,-3.52 -1.19,-7.78 -1.29,-6.73 -1.47,-15.04 -0.03,-0.93 -0.23,-3.17 -0.04,-3.92 0.08,-0.3 0.73,-0.99 0.91,-1.19 0.32,-0.35 0.69,-0.59 1.16,-0.91 0.89,-0.59 1.6,-1.25 2.27,-1.89 1.91,-1.84 0.74,-5.77 -0.66,-7.66 -0.86,-1.16 -1.67,-2.75 -1.97,-4.27 -0.22,-1.16 -0.2,-2.65 -0.46,-3.69 -0.32,-0.01 -0.43,0.07 -0.59,0.33 -0.21,0.35 -0.62,1.64 -0.77,2.07 -0.92,2.51 -2.49,3.56 -3.94,5.44l-1.19 1.66c-0.9,1.97 -0.94,3.27 -0.2,5.34 0.95,2.69 3.11,3.47 3.13,3.49 0.16,0.15 0.32,0.35 0.48,0.52 0.32,0.33 0.59,0.54 0.72,1.12 0.13,0.6 0.38,0.74 0.44,1.48 0.3,3.56 0.23,7.13 0.65,10.66 0.11,0.98 0.47,4.2 0.68,4.94 0.4,1.44 0.54,3.16 0.99,4.69 0.28,0.94 0.45,2.23 0.63,3.23 0.37,2.01 1.08,3.96 1.67,5.86 0.42,1.33 0.22,1.49 -1.37,1.95 -2.7,0.78 -4.92,-0.85 -6.65,-3.36 -2.46,-3.59 -3.94,-8.95 -4.4,-11.64 -0.41,-2.45 -0.2,-4.72 1.91,-5.45 2.1,-0.72 4.14,0.38 4.55,2.62 0.7,3.78 -2.32,4.02 -3.1,2.44 0.96,0.11 1.58,0.19 2.19,-0.41 0.53,-0.52 0.54,-1.46 0.2,-2.25 -0.24,-0.57 -0.87,-1.18 -1.4,-1.44 -2.07,-1.02 -4.48,0.95 -3.43,4.12 0.96,2.9 5.47,3.79 7.05,0.98 1.52,-2.69 0.27,-6.28 -2.24,-7.79 -1.64,-0.98 -2.72,-0.89 -4.72,-0.66 0.14,-0.3 0.12,-0.21 0.37,-0.44 0.42,-0.39 0.75,-0.94 1.03,-1.44 0.37,-0.67 0.77,-1.55 0.88,-2.43 0.12,-0.89 -0.08,-1.98 -0.44,-2.68 -0.17,-0.34 -0.36,-0.74 -0.55,-1.07 -0.71,-1.26 -1.39,-1.55 -2.82,-2.1 -0.81,-0.31 -2,-0.06 -2.84,0.14 -1.58,0.36 -3.16,1.7 -3.81,2.71 -0.36,0.56 -0.7,1.61 -0.9,2.33 -0.47,1.73 -0.19,3.87 0.91,5.23 0.68,0.84 1,0.73 1.94,1.36 0.41,0.28 1.14,1.38 1.38,1.85 0.64,1.28 0.33,1.19 0.02,2.52 -0.48,2.1 -0.43,3.89 -0.42,6.1l-0.5 -0.26c-0.13,-0.06 -0.39,-0.15 -0.57,-0.19 -1.26,-0.26 -2.26,0.8 -2.18,2.19 0.03,0.53 0.71,1.66 1.22,1.78 0.81,0.19 1.84,-0.52 2.13,-0.84 0.23,3.82 -3.83,8.92 -0.43,12.28 2.04,2.03 2.52,0.73 3.17,6.08 0.11,0.96 0.94,3.88 1.27,4.87 0.25,0.76 0.57,1.48 0.86,2.2 0.33,0.81 0.55,1.44 0.93,2.15l2.18 3.98 1.89 2.72c0.28,0.33 0.59,0.52 0.6,1.02 -0.48,0.44 -2.42,1.45 -2.99,0.91 -0.58,-0.54 -1.03,-1.18 -1.52,-1.79 -0.19,-0.24 -0.33,-0.46 -0.51,-0.64 -0.63,-0.63 -1.26,-1.78 -1.79,-2.59 -0.6,-0.91 -1.11,-1.82 -1.7,-2.76 -1.55,-2.47 -3.2,-6.17 -4.34,-8.89 -0.42,-1.01 -0.95,-2.13 -1.31,-3.16 -0.2,-0.57 -0.32,-1.05 -0.55,-1.6 -0.66,-1.67 -1.08,-3.42 -1.51,-5.18 -0.59,-2.36 -1.09,-5.19 -1.21,-7.61 -0.04,-0.73 -0.05,-1.31 -0.13,-2.02 -0.09,-0.75 -0.36,-2.35 0.14,-2.95 0.74,-0.88 1.24,-0.72 2.1,-1.29 0.76,-0.5 1.68,-1.37 2.1,-2.36 0.34,-0.81 0.73,-2.88 0.43,-3.81 -0.4,-1.25 -1,-1.98 -1.77,-2.61 -0.76,-0.62 -1.82,-1.23 -3.12,-1.37 -1.76,-0.2 -1.9,-0.24 -3.47,0.63 -3.18,1.75 -2.72,7 -0.25,9.11 2.08,1.78 3.08,0.3 3.48,5.43 0.22,2.68 0.2,3.34 0.67,5.97 0.11,0.62 0.16,1.31 0.29,1.94 0.59,2.95 1.78,7.58 3.12,10.1 0.26,0.5 0.37,1.11 0.61,1.62 0.7,1.52 1.45,3.07 2.07,4.62 0.23,0.59 0.54,0.9 0.79,1.44 0.48,1.01 1.07,1.84 1.55,2.84 0.81,1.68 3.22,5.14 4.45,6.62 0.45,0.54 0.22,1.17 -0.4,1.38 -1.12,0.39 -2.21,-0.58 -3.02,-1.19 -0.91,-0.67 -2.63,-2.48 -3.43,-3.26 -0.54,-0.53 -1.23,-0.99 -1.76,-1.55 -1.4,-1.52 -2.7,-3.21 -4.01,-4.83l-2.94 -3.75c-0.19,-0.25 -0.33,-0.34 -0.51,-0.58 -0.91,-1.25 -2.81,-4.06 -3.43,-5.4 -0.43,-0.92 -1.19,-2.11 -1.5,-2.97 -1.07,-2.98 0.33,-2.69 0.9,-5.02 0.34,-1.37 -0.24,-2.6 -0.9,-3.36 -2.68,-3.08 -7.37,-0.43 -7.03,3.35 0.11,1.29 0.86,2.28 1.76,2.69l2.53 0.71c0.32,0.04 0.68,0.07 0.96,0.19 0.32,0.13 0.94,0.82 1.1,1.12 0.26,0.49 0.39,0.97 0.71,1.53 0.55,0.95 0.97,2.04 1.56,2.9 0.6,0.89 1.1,1.83 1.7,2.76 0.88,1.36 2.61,3.92 3.67,5.17 0.32,0.38 0.58,0.88 0.89,1.26 0.35,0.43 0.71,0.77 1.05,1.18 1.02,1.2 1.96,2.47 3.06,3.56 0.4,0.38 0.76,0.69 1.16,1.06 0.76,0.71 1.51,1.49 2.32,2.15 0.22,0.17 0.36,0.34 0.57,0.51 0.81,0.64 2.75,2.12 2.01,3.34 -0.15,0.24 -0.3,0.29 -0.57,0.5 -0.12,0.09 -0.21,0.14 -0.28,0.28 -0.12,0.27 -0.06,0.35 0.08,0.48 0.5,0.45 1.86,-0.98 3.22,-1.42 1.3,-0.42 2.35,-0.81 3.74,-1.11 0.94,-0.2 2.03,-0.32 2.84,-0.78 0.28,-0.16 0.77,-0.08 1.11,-0.11 1.36,-0.14 2.86,-0.48 4.21,-0.71 5.46,-0.96 10.6,-2.34 15.96,-3.51 2.65,-0.58 5.3,-1.13 7.94,-1.74 1.96,-0.45 3.88,-0.9 5.73,-1.58 0.6,-0.22 1.14,-0.49 1.76,-0.7 2.59,-0.84 4.97,-1.43 7.75,-2.01 1.61,-0.33 5.04,-0.93 6.57,-0.65 0.77,0.14 1.46,0.32 2.14,0.06 0.14,-1.44 -2.09,-0.02 -1.8,-2.56 0.08,-0.66 0.31,-1.12 0.56,-1.61 0.98,-1.95 3.3,-7.19 3.76,-9.16 0.15,-0.65 0.23,-1.1 0.43,-1.72 0.18,-0.52 0.38,-1.06 0.54,-1.62 0.16,-0.59 0.21,-1.18 0.37,-1.79 0.31,-1.13 0.52,-2.33 0.76,-3.53 0.26,-1.29 0.51,-2.39 0.68,-3.72l0.51 -3.77c0.03,-0.73 0.03,-1.35 0.1,-2.08 0.08,-0.76 0.02,-1.37 0.07,-2.08 0.11,-1.75 1.24,-1.81 1.84,-2.46 0.76,-0.81 1.68,-1 2.2,-2.11 1.15,-2.47 -0.9,-4.93 -2.61,-5.48 -1.05,-0.33 -2.72,-0.4 -3.68,0.11 -1.97,1.04 -2.68,4.2 -1.38,5.97 0.32,0.44 0.65,0.74 1.07,1.08 0.36,0.3 0.92,0.6 1.25,0.9 0.57,0.53 0.87,2.51 0.78,3.54 -0.1,1.09 -0.08,3.08 -0.27,4.02 -0.13,0.63 -0.24,1.2 -0.31,1.85 -0.17,1.61 -0.79,3.77 -1.12,5.35 -0.49,2.35 -1.29,4.5 -1.87,6.82 -0.28,1.13 -0.58,2.23 -0.99,3.32 -0.37,1.01 -0.88,1.91 -1.3,3.01 -0.72,1.85 -1.58,4.23 -2.91,5.7 -0.81,0.89 -2.62,0.94 -2.06,-0.83 0.77,-2.41 1.64,-8.74 1.69,-11.33 0.02,-0.71 0.17,-1.26 0.17,-1.99 -0.03,-1.67 0.08,-5.08 -0.05,-6.31 -0.07,-0.69 0.02,-1.44 0,-2.15 -0.12,-3.22 -0.64,-6.33 -1.25,-9.48 -0.22,-1.15 -0.61,-2.31 -0.88,-3.45 -0.57,-2.36 -1.49,-4.25 -2.09,-6.61 -0.35,-1.37 -0.59,-2.36 0.33,-3.37 0.76,-0.84 1.27,-1.55 1.55,-2.76 0.41,-1.7 0.11,-3.75 -0.88,-5.17 -1.01,-1.45 -1.89,-2.39 -3.99,-2.49 -1.9,-0.1 -2.07,0.19 -3.36,0.97 -1.53,0.93 -3.14,3.06 -2.94,5.74 0.08,0.93 0.95,2.31 1.4,2.9 0.9,1.18 2.6,2.17 4.28,2.19 1.37,0.02 2.18,-0.16 2.82,1.48 0.4,1.01 0.68,2.23 1.12,3.18 0.48,1.02 1.23,3.78 1.56,4.92 0.54,1.86 1.12,5.39 1.33,7.38 0.28,2.68 0.32,5.43 0.36,8.18 0.07,4.34 -0.18,7.87 -0.79,12.08 -0.34,2.38 -0.73,4.79 -1.58,7.04 -0.27,0.71 -0.62,0.71 -1.43,0.74 -0.59,0.02 -1.63,0.12 -2,-0.25 -0.07,-0.12 0.87,-4.49 0.92,-5.23 0.14,-1.87 0.5,-3.98 0.39,-5.84 -0.19,-2.96 -0.02,-2.49 -0.49,-5.68 -0.42,-2.86 -0.48,-2.55 -1.11,-5.11 -0.2,-0.81 -0.31,-1.99 -0.06,-2.78 0.41,-1.34 2.76,-2.68 0.59,-6.9 -0.69,-1.32 -1.83,-2.43 -2.72,-3.51 -0.91,-1.11 -1.61,-1.78 -2.22,-3.16 -0.03,-0.08 -0.08,-0.21 -0.11,-0.27 -0.16,-0.28 -0.04,-0.15 -0.3,-0.22 -0.13,0.28 -0.32,1.85 -0.63,2.66 -0.35,0.9 -0.53,1.61 -0.8,2.57 -0.73,2.51 -0.86,6.02 1.08,8.01 2.4,2.47 3.04,0.97 4.23,2.54 0.58,0.76 0.67,1.42 1,2.39 1.29,3.82 1.24,7.95 0.83,11.92 -0.22,2.05 -0.77,6.6 -1.79,8.27 -0.49,0.8 -1.62,0.66 -2.65,0.72 0.57,-6.36 -0.02,-9.96 -4.08,-14.46 -1.43,-1.58 -2.91,-3.59 -4.05,-5.4 -1.05,-1.65 -2.8,-4.5 -2.4,-7.12 0.82,-5.37 9.3,-5.65 0.66,-22.68 -0.34,-0.69 -0.71,-0.96 -0.5,-1.69 0.83,-2.97 2.48,-7.96 4.51,-9.72 2.04,-1.77 3.38,-0.49 5.05,-4.49 1.56,-3.72 1.8,-7.81 -0.67,-11.26 -0.52,-0.73 -1.06,-1.27 -1.72,-1.81 -0.3,-0.25 -0.41,-0.22 -0.47,-0.75 -0.15,-1.41 0.23,-3.17 -0.07,-4.46 -0.17,-0.73 -0.48,-1.15 -1.34,-1.11 -1.71,0.08 -3.29,1.83 -4.19,3.01 -1.21,1.57 -0.52,0.84 -3.42,1.35 -2.48,0.43 -5.25,1.25 -7.43,2.1 -1.48,0.57 -5.32,2.17 -6.24,3.27z"/>
   <path class="fil1" d="M42.9 93.8c1.47,-0.22 5.97,-1.29 7.76,-1.67 2.62,-0.57 5.23,-1.15 7.85,-1.7 1.34,-0.28 2.66,-0.53 4,-0.76 1,-0.18 1.16,0 1.52,-0.87 1.05,-2.59 0.12,-8.07 -0.3,-10.69 -0.27,-1.68 -2.86,-15.42 -3.25,-15.75 -0.15,-0.11 -1.32,-0.65 -1.59,-0.8 -4.06,-2.14 -4.23,-3.24 -6.75,-5.17 -0.51,-0.39 -2.2,-1.69 -2.85,-1.87 -0.17,1.76 -0.2,3.56 -0.36,5.33 -0.47,5.15 -1.09,10.01 -2.15,15.08 -0.85,4.1 -1.62,5.35 -2.61,8.85 -0.72,2.59 -1.75,7.17 -1.27,10.02z"/>
   <path class="fil2" d="M52.32 18.17c0.21,-0.08 0.27,-0.14 0.56,-0.11l0.14 0.27c-0.29,-0.06 -0.2,-0.12 -0.45,0.01 -0.25,0.74 0.98,1.17 1.81,1.04 0.95,-0.14 1.52,-0.71 2.16,-0.85 0.01,0.3 -0.4,0.39 -0.97,0.66 -1.42,0.68 -3.26,0.64 -3.25,-1.02zm-0.1 -2.71c0.39,-0.13 0.57,-0.44 0.85,0.07l-0.65 0.05c-0.14,1.22 1.28,1.97 2.83,1.6 0.26,-0.07 0.8,-0.39 0.99,-0.29 -0.05,0.18 0.13,0.09 -0.24,0.21 -0.76,0.24 -1.56,0.48 -2.35,0.25 -0.88,-0.25 -1.41,-0.83 -1.43,-1.89zm17.81 -0.96c0.18,-0.16 0.46,-0.19 0.79,-0.15 0.91,1.87 -1.79,2.66 -3.41,2.35 0.1,-0.23 -0.15,-0.12 0.23,-0.19 0.16,-0.02 2.34,0.26 3.04,-0.97 0.23,-0.39 0.24,-0.68 0.03,-1.03l-0.42 0.04c-0.17,0.28 0.06,0.26 -0.23,0.49l-0.03 -0.54zm-0.36 -2.71c1.15,2.15 -2.22,3.03 -3.16,2.94 0.07,-0.23 -0.15,-0.06 0.18,-0.18 0.17,-0.06 3.72,-0.37 2.91,-2.53 -0.3,0.05 -0.14,-0.03 -0.4,0.21l-0.07 -0.33 0.54 -0.11zm-3.94 1.33c0.05,-0.04 0.03,-0.04 0.14,-0.09 0.02,-0.01 0.09,-0.03 0.11,-0.04 0.1,-0.02 0.21,-0.04 0.31,-0.08 1.93,-0.61 2.44,-2.35 1.66,-3.1 -0.33,0.04 -0.36,0.17 -0.6,0.33 0.02,-0.49 0.15,-0.52 0.68,-0.52 0.17,0.16 0.25,0.26 0.34,0.55 0.08,0.28 0.11,0.51 0.07,0.8 -0.17,1.33 -1.27,1.73 -2.16,2.09 -0.7,0.28 -0.48,0.12 -0.55,0.06zm-10.7 0.64c-0.14,-0.48 -0.33,-0.9 -0.08,-1.42 0.44,-0.92 1.89,-1.01 3.05,0.89 0.64,1.06 1.92,3.63 3.66,2.9 1.1,-0.45 0.54,-1.57 0.08,-2.33 -0.46,-0.75 -0.97,-1.33 -1.44,-2.02 -1.09,-1.57 -0.08,-3.32 1.5,-2.04 0.28,0.24 0.71,0.93 0.73,0.89 0,-0.01 0.03,0.02 0.04,0.04 1.62,-0.47 2.19,1.32 1.15,2.06 -0.62,0.44 -1.16,0.19 -1.51,-0.25 -0.53,-0.68 -0.16,-1.05 0.15,-1.59 -0.17,-0.61 -1.13,-1.86 -1.98,-1.27 -0.78,0.55 -0.09,1.92 0.28,2.41 0.74,0.96 2.74,3.14 1.33,4.13l-0.22 0.19c0.25,0.37 0.89,0.81 1.47,0.44 0.58,-0.38 0.53,-0.8 0.95,-1.29 0.04,0.06 0.14,0.05 -0.06,0.41 -1.02,1.89 -1.56,1.15 -2.19,0.91 0.09,0.9 0.03,1.07 -0.73,1.4 -0.43,0.19 -1,0.29 -1.49,0.31 -0.05,0 -0.25,0 -0.3,-0.01 -0.18,-0.04 -0.07,-0.02 -0.15,-0.09 0.37,-0.16 1.3,-0.1 1.97,-0.4 0.83,-0.39 0.56,-0.86 0.34,-1.63 -1.39,0.08 -1.66,-0.26 -2.32,-0.96 -0.48,-0.5 -0.93,-1.28 -1.31,-1.93 -1.75,-3.01 -3.66,-1.1 -2.69,0.17 0.27,0.15 0.58,0.19 0.91,0.39 0.93,0.55 0.8,2.04 -0.39,2.17 -0.74,0.08 -1.4,-0.5 -1.59,-0.96 -0.33,-0.83 0.4,-1.26 0.84,-1.52zm-5.44 -4.79c0.44,1 2.9,4.04 3.05,5.01 -1.95,1.38 -4.54,1.85 -6.58,2.78 -0.04,0.45 0.02,1.57 0.1,2 0.13,0.73 2.22,3.14 3.77,2.56 0.94,-0.35 1.54,-1.26 3.03,-1.28 1.04,-0.01 2.68,0.55 3.29,1.08 -0.34,0.4 -1.14,0.8 -1.91,0.81 -0.73,0.01 -1.78,-0.81 -0.84,-1.13 0.26,0.14 0.2,0.25 0.41,0.27 0,-0.44 -0.39,-0.68 -0.93,-0.1 0.07,1.87 2.57,0.96 3.41,0.35 0,-0.14 -0.15,-0.17 0.23,-0.46 0.16,-0.11 0.29,-0.27 0.54,-0.26 -0.1,0.29 -0.4,0.33 -0.62,0.67 0.29,0.32 0.75,0.61 1.15,1.04 0.19,0.2 0.31,0.36 0.5,0.58 0.14,0.17 0.28,0.46 0.46,0.59 0.78,-0.46 1.2,-0.94 2.46,-0.9 1.3,0.03 1.61,0.73 1.94,1.43 1.25,0.01 2.18,-0.92 3.08,-1.25 0.02,-1.21 -0.14,-1.86 0.48,-2.83 2.27,-3.55 7.06,1.59 6.38,-6.74 -0.09,-1.16 -0.29,-1.69 -0.76,-2.58 -0.76,-1.41 -1.54,-2.94 -2.74,-3.95 -2.94,-2.46 -5.99,-2.69 -10.43,-1.51 -1.74,0.47 -3.33,1.01 -4.98,1.64 -0.88,0.33 -4.05,1.71 -4.49,2.18z"/>
   <path class="fil0" d="M38.74 108.05c-0.03,-0.77 0.32,-0.94 0.75,-1.26 2.32,-1.79 7.91,-2.91 9.41,-4.43 0.79,-0.81 0.71,-2 -0.75,-2.37 -0.83,-0.2 -2.29,0.58 -2.97,0.88 -1.32,0.57 -4.62,1.86 -5.58,2.34 -1.86,0.92 -4.03,2.5 -5.08,3.84 -1.31,1.67 -1.44,1.7 -0.05,3.01 1.33,1.26 1.36,1.46 3.3,2.62 0.85,0.51 1.66,0.91 2.54,1.39 1.25,0.69 4.18,2.36 4.53,3.31 0.5,1.34 -0.3,2.07 -1.13,2.63 -2.68,1.82 -2.37,1.33 -4.44,1.28 -0.34,-0.01 -1.74,0.12 -1.87,0.07 -0.83,-0.27 -0.76,-1.98 -2.25,-0.53 -0.53,0.53 -1.34,1.44 -1.42,2.58 -0.1,1.38 0.98,1.56 2.19,1.73 3.99,0.56 8.99,-1.38 11.25,-4.51 1.06,-1.47 1.93,-4.16 0.78,-6.06 -1.72,-2.85 -5.72,-3.01 -9.21,-6.52z"/>
   <path class="fil0" d="M53.88 132.88c0.93,1.42 2.48,4.86 1.48,6.62 -0.32,0.56 -1.12,0.83 -1.88,0.96 -2.76,0.43 -1.65,-1.16 -1,-3.23 0.19,-0.63 0.65,-3.9 1.4,-4.35zm-6.95 17.1c0.75,0.37 1.73,0.09 2.12,-0.33 1.3,-1.39 0.88,-4.42 2.48,-5.9 0.82,-0.77 2.64,-1.64 4.25,-1.31 0.71,0.15 1.04,0.83 1.27,1.5 0.41,1.19 0.4,3.79 1.68,3.93 0.81,0.08 1.62,-0.36 1.95,-0.81 1.13,-1.56 -1.45,-4.38 -0.71,-6.79 0.35,-1.15 0.51,-1.26 -0.62,-1.72 -0.47,-0.19 -0.39,-0.3 -0.53,-0.86 -0.09,-0.37 -0.18,-0.74 -0.26,-1.11 -0.19,-0.77 -0.36,-1.46 -0.55,-2.22 -0.72,-2.96 -1.51,-5.97 -2.78,-8.44 -0.44,-0.84 -1.54,-0.32 -2,0 -1.31,0.92 -1.83,4.48 -2.19,6.11 -0.35,1.61 -0.8,2.86 -1.22,4.4 -0.4,1.47 -0.77,2.91 -1.1,4.43 -0.35,1.6 -0.64,2.96 -1.11,4.5 -0.44,1.43 -0.99,2.99 -0.68,4.62z"/>
   <path class="fil0" d="M56.96 105.29c0.45,0.49 1.56,3.17 1.73,4.08 0.14,0.76 0.12,1.86 -0.21,2.49 -0.31,0.59 -1.01,0.88 -1.91,1.02 -1.15,0.18 -1.9,0.14 -1.72,-0.96 0.12,-0.76 0.48,-1.49 0.71,-2.21 0.41,-1.27 0.54,-3.63 1.4,-4.42zm-6.89 17.17c3.91,0.82 2.43,-4.56 4.6,-6.34 0.89,-0.72 2.6,-1.63 4.22,-1.26 2.09,0.48 1.07,5.26 2.99,5.43 0.84,0.07 1.68,-0.41 1.93,-0.86 1.05,-1.89 -1.61,-4.32 -0.68,-6.92 0.5,-1.37 -0.16,-1.31 -0.77,-1.57 -0.43,-0.19 -0.55,-1.27 -0.73,-2.04 -0.18,-0.76 -0.37,-1.48 -0.54,-2.23 -0.68,-2.84 -1.55,-6.05 -2.78,-8.37 -0.4,-0.75 -1.48,-0.3 -1.97,0.03 -1.3,0.87 -1.85,4.54 -2.2,6.12 -0.34,1.58 -0.8,2.88 -1.21,4.39 -0.76,2.75 -1.51,6.69 -2.22,8.93 -0.36,1.17 -1.1,3.41 -0.64,4.69z"/>
   <path class="fil0" d="M68.88 141.72c0.33,0.33 0.53,0.53 1.07,0.51 2.73,-0.13 3.34,-3.94 3.36,-6.28 0.02,-3.71 0.14,-8.25 -1.23,-11.66 -0.2,-0.49 -0.3,-0.7 -0.98,-0.66 -0.41,0.02 -0.94,0.18 -1.25,0.38 -0.72,0.46 -0.72,1.67 -0.65,2.48 0.15,1.85 0.76,3.54 1.02,5.34 0.19,1.28 0.41,4.9 -0.19,5.84l-0.22 -0.19c-0.01,-0.02 -0.13,-0.18 -0.16,-0.23 -0.08,-0.12 -0.18,-0.26 -0.27,-0.41 -0.19,-0.3 -0.35,-0.62 -0.52,-0.95 -1.02,-2.05 -1.66,-4.39 -2.68,-6.09 -0.55,-0.92 -0.78,-1.37 -1.61,-1.32 -1.37,0.07 -1.53,0.53 -1.66,1.26 -0.62,3.39 -0.67,7.27 -0.85,10.75 -0.05,0.93 -0.1,1.84 -0.18,2.77 -0.09,0.98 -0.25,1.67 0.73,1.96 0.83,0.24 1.83,-0.09 2.23,-0.62 0.39,-0.52 0.47,-1.63 0.48,-2.42 0.03,-1.85 -0.27,-3.59 0.35,-5.29 0.59,0.76 1.57,2.71 2.48,3.94 0.21,0.29 0.48,0.65 0.73,0.89z"/>
   <path class="fil0" d="M32.28 148.48c-0.37,-1.56 -0.35,-4.5 -0.43,-6.22 -0.06,-1.13 -0.31,-5.62 -0.19,-6.45 1.67,-0.06 2.73,0.42 3.88,1.41 1.06,0.91 2.26,2.6 1.9,4.59 -0.33,1.83 -2.54,6.93 -5.16,6.67zm-4.9 -13.76c0.07,0.31 0.76,0.51 0.87,1.24 0.35,2.42 0.72,7.56 0.8,9.99 0.02,0.72 0.03,1.43 0.02,2.15 -0.01,1.74 -1.81,1.49 -1.18,3.01 0.17,0.4 0.65,0.82 1.18,0.97 2.72,0.79 6.68,-2.35 8.27,-4.37 1.86,-2.38 3.89,-6.15 2.79,-9.55 -0.83,-2.57 -4.56,-5.46 -6.96,-5.95 -1.66,-0.34 -6.4,-0.22 -5.79,2.51z"/>
   <path class="fil0" d="M69.77 113.82c-0.34,-1.79 -0.34,-4.32 -0.43,-6.25 -0.05,-0.99 -0.3,-5.76 -0.19,-6.41 1.93,-0.21 3.32,0.83 4.21,1.7 2.79,2.72 1.49,5.41 -0.16,8.42 -0.57,1.02 -1.8,2.59 -3.43,2.54zm-4.88 -13.71c0.34,0.3 0.79,0.64 0.87,1.29 0.36,2.95 0.7,7 0.78,9.93 0.02,0.61 0.18,2.59 -0.17,3.04 -0.55,0.71 -1.4,0.98 -1,2.02 0.65,1.71 3.34,1.13 4.72,0.47 2.63,-1.26 5.14,-3.85 6.49,-6.44 1.7,-3.27 2.04,-7.05 -0.63,-9.54l-1.12 -1.03c-0.98,-0.89 -2.8,-2.01 -4.15,-2.3 -1.16,-0.25 -2.79,-0.12 -3.93,0.13 -1.23,0.26 -2,0.99 -1.86,2.43z"/>
   <path class="fil3" d="M51.36 41.77c-0.14,1.93 -0.29,3.74 -0.5,5.65l-0.62 5.54c0.18,0.24 0.38,0.38 0.6,0.58l1.2 1.11c0.24,0.22 0.35,0.37 0.58,0.57l2.43 2.27c0.41,0.36 0.75,0.7 1.24,1.06 1.01,0.74 3.47,2.16 4.6,2.42 -0.14,-0.71 -0.41,-1.46 -0.59,-2.2 -0.19,-0.75 -0.39,-1.47 -0.56,-2.21 -0.35,-1.53 -0.69,-3.04 -0.91,-4.61 -0.44,-3.07 -0.28,-5.66 0.63,-8.57 0.1,-0.32 0.27,-0.7 0.34,-1.01 -2.08,-0.04 -4.58,-0.13 -6.6,-0.57 -0.45,-0.1 -1.56,-0.51 -1.82,-0.52l-0.02 0.49z"/>
   <path class="fil2" d="M29.52 81.94c0.47,-0.18 1.49,0.54 1.68,0.79 0.56,0.73 -0.11,1.47 -0.64,1.66 -1.68,0.6 -2.44,-1.92 -1.04,-2.45zm3.6 12.45c0.18,-0.19 0.59,-1.04 0.79,-1.33 0.76,-1.11 1.05,-1.46 1.93,-2.46 0.31,-0.34 0.74,-0.7 0.79,-1.42 0.11,-1.85 -2.56,-4.5 -3.32,-5.41 -0.77,-0.93 -2.23,-2.37 -3.11,-3.43 -0.34,-0.4 -0.66,-0.82 -1,-1.23 -1.41,-1.7 -2.17,-3.2 -3.07,-5.16l-0.24 -0.4c-0.8,0.48 -1.25,1.23 -1.21,2.57 0.03,1 0.26,2.38 0.44,3.37 0.79,4.33 3.65,9.33 6.23,12.85 0.56,0.76 1.07,1.62 1.77,2.05z"/>
   <path class="fil4" d="M61.62 34.3c-0.11,0.21 -0.04,0.26 -0.2,0.43 -1.17,-1.11 -2.11,-1.85 -3.68,-2.7 -0.88,-0.48 -3.4,-1.82 -4.38,-1.96 -0.61,1.33 -1.33,4.2 -1.54,5.82 -0.07,0.5 -0.23,3.14 -0.11,3.48 0.24,0.67 1.87,0.84 2.7,0.99 1.69,0.31 5.1,1.35 6.1,0.23 0.75,-0.83 1.24,-4.87 1.11,-6.29z"/>
   <path class="fil0" d="M46.2 131.1c0.53,-1.76 -2.69,-1.82 -3.76,-0.37 -0.81,1.1 -0.82,3.72 -0.94,5.31 -0.15,2 -0.03,4.05 -0.03,6.06 0,1.61 -0.16,4.62 0.24,6.03 0.22,0.79 0.76,1.4 1.64,1.53 0.43,0.06 1.05,-0.08 1.42,-0.22 0.46,-0.17 0.65,-0.32 0.67,-0.87 0.27,-6.04 -1.2,-10.96 0.76,-17.47z"/>
   <path class="fil2" d="M34.66 33.62c0.57,-0.07 0.61,-0.29 0.97,-0.53 0.65,-0.44 0.49,-0.1 1.87,-1.2 0.28,-0.23 0.54,-0.56 0.74,-0.8 1.17,-1.34 1.58,-2.88 1.07,-4.71 -0.68,-2.46 -3.07,-4.51 -3.69,-7.84 -0.11,-0.57 0.02,-0.57 -0.42,-0.6 -0.07,0.1 0,-0.05 -0.09,0.16l-0.61 1.48c-0.59,1.7 -0.65,2.12 -0.82,3.87 -0.22,2.21 -0.46,1.25 -0.3,4.33 0.02,0.38 0.02,0.74 0.03,1.11 0.01,0.39 0.18,0.56 0.26,0.99 0.05,0.32 0.07,0.69 0.13,1.02 0.06,0.36 0.18,0.57 0.24,0.91 0.14,0.74 0.08,1.4 0.62,1.81z"/>
   <path class="fil4" d="M51.36 41.77l0.02 -0.49c-0.33,-0.23 -1.16,-0.31 -1.58,-0.38l-5.04 -0.83c-0.92,1.9 -0.6,5.21 0.1,7.07 0.62,1.62 2.31,4.09 3.56,4.84 0.01,-0.02 0.03,-0.07 0.04,-0.06l0.09 -0.23c0.55,-2.02 0.66,-2.49 1.45,-4.69 0.3,-0.85 0.54,-1.62 0.78,-2.52 0.11,-0.43 0.52,-2.59 0.58,-2.71z"/>
   <path class="fil2" d="M32.28 148.48c2.62,0.26 4.83,-4.84 5.16,-6.67 0.36,-1.99 -0.84,-3.68 -1.9,-4.59 -1.15,-0.99 -2.21,-1.47 -3.88,-1.41 -0.12,0.83 0.13,5.32 0.19,6.45 0.08,1.72 0.06,4.66 0.43,6.22z"/>
   <path class="fil2" d="M69.77 113.82c1.63,0.05 2.86,-1.52 3.43,-2.54 1.65,-3.01 2.95,-5.7 0.16,-8.42 -0.89,-0.87 -2.28,-1.91 -4.21,-1.7 -0.11,0.65 0.14,5.42 0.19,6.41 0.09,1.93 0.09,4.46 0.43,6.25z"/>
   <path class="fil5" d="M62.32 55.63c0.05,-0.82 -0.61,-1.61 0.29,-3.32 0.49,-0.94 1.14,-1.57 1.68,-2.47 1.23,-2.04 1.4,-4.15 0.64,-6.78l-4 -0.56c-0.83,3.54 -0.81,8.56 0.52,12.04 0.35,0.91 0.45,1.14 0.87,1.09z"/>
   <path class="fil2" d="M53.5 26.33c0.02,1.18 3.02,2.2 4.22,2.8 0.78,0.39 1.52,0.83 2.17,1.29l1.95 1.53c0.01,-1.54 0.31,-2.78 0.89,-3.98 0.53,-1.11 1.85,-2.58 -0.54,-2.68 -1.45,-0.07 -3.17,0.1 -4.62,0.17 -1.14,0.06 -3.26,0.08 -4.07,0.87z"/>
   <path class="fil4" d="M45.73 16.35c1.45,-0.2 4.76,-1.78 6.1,-2.44 -0.13,-0.93 -2.47,-3.77 -2.85,-4.64 -0.39,0.12 -1.45,0.78 -1.78,1.01 -0.5,0.36 -1.42,1.74 -1.77,2.47 -0.21,0.45 -0.1,0.54 0.03,1.04 0.21,0.86 0.08,1.7 0.27,2.56z"/>
   <path class="fil2" d="M92.5 44.48c2.7,-0.76 3.76,3.41 1.12,4.01 -2.26,0.51 -4.22,-3.13 -1.12,-4.01zm-0.78 -1.85c-1.02,0.19 -1.49,0.95 -1.9,1.82 -0.44,0.91 -0.67,1.91 -0.26,2.97 0.43,1.11 2.76,3.21 4.55,2.4 3.25,-1.48 3.23,-4.86 0.53,-6.55 -0.77,-0.49 -1.85,-0.84 -2.92,-0.64z"/>
   <path class="fil2" d="M4.04 66.46c2.93,-0.48 2.68,3.49 0.55,3.89 -2.59,0.49 -3.16,-3.47 -0.55,-3.89zm0.09 -1.92c-0.58,0.12 -0.85,0.21 -1.23,0.49 -3.15,2.36 -2.3,6.61 1.69,6.67 0.59,0.01 0.91,-0.1 1.29,-0.37 0.32,-0.23 0.63,-0.59 0.86,-0.91 1.19,-1.68 1.35,-3.36 -0.22,-4.85 -0.61,-0.57 -1.52,-1.2 -2.39,-1.03z"/>
   <path class="fil5" d="M46.73 65.1c-0.56,0.16 -3.55,1.95 -4.19,2.36 -0.62,0.38 -4.15,2.45 -2.3,3.22 0.73,0.3 1.94,0.37 2.8,0.41 2.13,0.09 2.3,0.15 3.39,-3.12 0.3,-0.91 0.46,-1.86 0.3,-2.87z"/>
   <path class="fil2" d="M53.88 132.88c-0.75,0.45 -1.21,3.72 -1.4,4.35 -0.65,2.07 -1.76,3.66 1,3.23 0.76,-0.13 1.56,-0.4 1.88,-0.96 1,-1.76 -0.55,-5.2 -1.48,-6.62z"/>
   <path class="fil2" d="M56.96 105.29c-0.86,0.79 -0.99,3.15 -1.4,4.42 -0.23,0.72 -0.59,1.45 -0.71,2.21 -0.18,1.1 0.57,1.14 1.72,0.96 0.9,-0.14 1.6,-0.43 1.91,-1.02 0.33,-0.63 0.35,-1.73 0.21,-2.49 -0.17,-0.91 -1.28,-3.59 -1.73,-4.08z"/>
   <path class="fil2" d="M25.01 37.11c-0.57,0.12 -0.7,0.04 -0.97,0.46 -0.15,0.24 -0.38,0.57 -0.51,0.88 -0.59,1.47 0.67,2.69 -0.05,5.03 -0.61,1.98 0.67,1.21 0.88,0.95 0.26,-0.32 1.41,-3.1 1.78,-3.84 0.31,-0.61 0.69,-1.47 0.32,-2.27 -0.16,-0.35 -0.35,-0.56 -0.55,-0.83 -0.27,-0.37 -0.35,-0.49 -0.9,-0.38z"/>
   <path class="fil0" d="M55.03 13.76c-0.44,0.26 -1.17,0.69 -0.84,1.52 0.19,0.46 0.85,1.04 1.59,0.96 1.19,-0.13 1.32,-1.62 0.39,-2.17 -0.33,-0.2 -0.64,-0.24 -0.91,-0.39 -0.97,-1.27 0.94,-3.18 2.69,-0.17 0.38,0.65 0.83,1.43 1.31,1.93 0.66,0.7 0.93,1.04 2.32,0.96 0.22,0.77 0.49,1.24 -0.34,1.63 -0.67,0.3 -1.6,0.24 -1.97,0.4 0.08,0.07 -0.03,0.05 0.15,0.09 0.05,0.01 0.25,0.01 0.3,0.01 0.49,-0.02 1.06,-0.12 1.49,-0.31 0.76,-0.33 0.82,-0.5 0.73,-1.4 0.63,0.24 1.17,0.98 2.19,-0.91 0.2,-0.36 0.1,-0.35 0.06,-0.41 -0.42,0.49 -0.37,0.91 -0.95,1.29 -0.58,0.37 -1.22,-0.07 -1.47,-0.44l0.22 -0.19c1.41,-0.99 -0.59,-3.17 -1.33,-4.13 -0.37,-0.49 -1.06,-1.86 -0.28,-2.41 0.85,-0.59 1.81,0.66 1.98,1.27 -0.31,0.54 -0.68,0.91 -0.15,1.59 0.35,0.44 0.89,0.69 1.51,0.25 1.04,-0.74 0.47,-2.53 -1.15,-2.06 -0.01,-0.02 -0.04,-0.05 -0.04,-0.04 -0.02,0.04 -0.45,-0.65 -0.73,-0.89 -1.58,-1.28 -2.59,0.47 -1.5,2.04 0.47,0.69 0.98,1.27 1.44,2.02 0.46,0.76 1.02,1.88 -0.08,2.33 -1.74,0.73 -3.02,-1.84 -3.66,-2.9 -1.16,-1.9 -2.61,-1.81 -3.05,-0.89 -0.25,0.52 -0.06,0.94 0.08,1.42z"/>
   <path class="fil0" d="M92.5 44.48c-3.1,0.88 -1.14,4.52 1.12,4.01 2.64,-0.6 1.58,-4.77 -1.12,-4.01z"/>
   <path class="fil0" d="M95.87 63.47c-1.11,0.29 -1.74,0.85 -1.83,2.11 -0.11,1.38 0.88,1.89 2.21,1.79 1.12,-0.08 1.94,-0.89 1.71,-2.12 -0.23,-1.22 -0.56,-2.19 -2.09,-1.78z"/>
   <path class="fil0" d="M4.04 66.46c-2.61,0.42 -2.04,4.38 0.55,3.89 2.13,-0.4 2.38,-4.37 -0.55,-3.89z"/>
   <path class="fil2" d="M20.61 40.33c-1.07,0.22 -1.61,1.18 -1.6,2.48 0.01,0.98 0.63,2.67 1.49,2.59 0.54,-0.05 0.97,-0.45 1.16,-0.83 0.11,-0.23 1.01,-4.67 -1.05,-4.24z"/>
   <path class="fil0" d="M8.41 84.14c-1.4,0.21 -1.55,0.89 -1.22,2.31 0.57,2.55 4.55,1.04 3.6,-1 -0.4,-0.87 -1.07,-1.51 -2.38,-1.31z"/>
   <path class="fil2" d="M22.47 23.97c1.05,-0.46 1.7,1.73 0.61,2.18 -1.33,0.56 -1.68,-1.72 -0.61,-2.18zm0.18 -0.58c-1.13,0.24 -1.87,0.92 -1.75,2.27 0.06,0.63 0.23,1.07 0.62,1.37 0.73,0.58 2.13,0.39 2.92,-0.45 0.51,-0.54 0.45,-0.62 0.31,-1.39 -0.2,-1.11 -0.79,-2.08 -2.1,-1.8z"/>
   <path class="fil0" d="M39.6 45.72c-1.95,0.59 -0.67,3.48 1.07,2.79 0.26,-0.1 0.64,-0.42 0.74,-0.72 0.1,-0.3 0.26,-0.96 0.13,-1.25 -0.35,-0.81 -1.17,-1.06 -1.94,-0.82z"/>
   <path class="fil0" d="M22.65 23.39c1.31,-0.28 1.9,0.69 2.1,1.8 0.14,0.77 0.2,0.85 -0.31,1.39 -0.79,0.84 -2.19,1.03 -2.92,0.45 -0.39,-0.3 -0.56,-0.74 -0.62,-1.37 -0.12,-1.35 0.62,-2.03 1.75,-2.27zm-0.19 -0.44c-0.76,0.13 -1.29,0.41 -1.55,0.96 -0.24,0.52 -0.41,1.48 -0.31,2.13 0.12,0.75 0.35,1.18 0.94,1.51 1.35,0.72 2.73,0.45 3.48,-0.61 0.71,-1 0.31,-4.49 -2.56,-3.99z"/>
   <path class="fil5" d="M58.07 25.01c0.84,0.09 4.05,-0.17 4.56,-0.52 -0.06,-0.92 -1.33,-1.5 -2.46,-1.23 -0.85,0.21 -2.11,1 -2.1,1.75z"/>
   <path class="fil2" d="M73.5 52.56c0.65,0.19 1.15,-0.1 1.19,-0.76 0.04,-0.53 -0.25,-1.26 -0.42,-1.7 -0.55,-1.44 -0.45,-0.75 -1.23,-1.99 -0.16,-0.25 -0.21,-0.44 -0.51,-0.5 -0.08,0.8 0.14,1.89 0.32,2.6 0.15,0.55 0.46,1.97 0.65,2.35z"/>
   <path class="fil2" d="M71.23 57.36c0.59,0.04 1.09,0.01 1.59,-0.24 0.04,-0.67 -0.78,-2.55 -0.99,-3.27 -0.31,0.01 -0.99,-0.04 -1.08,0.21 -0.08,0.2 -0.04,1.04 -0.02,1.29 0.08,0.92 0.25,1.3 0.5,2.01z"/>
   <path class="fil0" d="M87.93 53.81c0,0.94 -0.82,1 -1.03,0.57 -0.27,-0.53 0.48,-0.85 1.03,-0.57zm-0.93 -0.96c-1.52,0.65 -1.01,3.05 0.75,2.44 1.75,-0.61 0.67,-3.04 -0.75,-2.44z"/>
   <path class="fil2" d="M75.3 52.33c0.06,0.52 0.52,1.4 0.74,1.85 0.21,0.46 0.57,1.46 1.29,1.08 0.74,-0.4 0.11,-1.31 -0.13,-1.78 -0.37,-0.73 -0.46,-1.08 -1.02,-1.52 -0.4,0.07 -0.52,0.26 -0.88,0.37z"/>
   <path class="fil2" d="M67.59 1.11c-1.2,0.33 -2.3,1.81 -0.5,2.27 0.73,0.19 1.2,-0.22 1.28,-0.9 0.09,-0.71 0.09,-1.62 -0.78,-1.37z"/>
   <path class="fil2" d="M41.96 11.16c0.05,0.97 1.85,2.29 2.46,0.65 0.32,-0.86 0.04,-1.3 -0.84,-1.28 -0.82,0.01 -1.17,0.12 -1.62,0.63z"/>
   <path class="fil2" d="M72.39 53.65c-0.05,1.05 0.56,2.41 0.94,3.15 0.5,-0.03 0.8,-0.27 1.03,-0.53 -0.05,-0.26 -0.38,-1.16 -0.5,-1.52 -0.2,-0.62 -0.34,-0.92 -0.6,-1.39 -0.34,0.02 -0.63,0.11 -0.87,0.29z"/>
   <path class="fil0" d="M11.53 72.81c0.3,-0.47 0.67,-0.44 1.06,-0.17 0.11,0.8 -0.77,0.98 -1.06,0.17zm0.05 -1.11c-1.41,0.63 -0.52,2.83 1.04,2.22 1.61,-0.63 0.28,-2.81 -1.04,-2.22z"/>
   <path class="fil2" d="M21.95 67.65l-0.03 -0.91 -0.98 -0.06c-0.15,0.64 -0.65,2.66 -0.08,3.16 0.43,0.39 0.94,0.12 1.03,-0.42 0.06,-0.39 0.08,-1.36 0.06,-1.77z"/>
   <path class="fil2" d="M75.18 56.64c-0.13,0.8 0.62,2.68 1,2.72 0.91,-0.23 0.9,-1.09 0.62,-2.02 -0.19,-0.62 -0.37,-1.5 -1.62,-0.7z"/>
   <path class="fil2" d="M23.33 66.39l-1.01 -4.65c-0.16,0.38 -0.14,0.93 -0.3,1.35 -0.24,0.63 -0.14,0.88 -0.1,1.57 0.07,1.03 0.19,2.13 1.41,1.73z"/>
   <path class="fil2" d="M23.77 73.14c0.37,-0.65 0.22,-2.32 -0.22,-2.75 -1.17,-0.16 -1.22,0.43 -1.05,1.43 0.14,0.75 0.39,1.42 1.27,1.32z"/>
   <path class="fil0" d="M22.47 23.97c-1.07,0.46 -0.72,2.74 0.61,2.18 1.09,-0.45 0.44,-2.64 -0.61,-2.18z"/>
   <path class="fil0" d="M74.35 70.79c0.6,-0.19 0.78,0.36 0.77,0.94 -0.01,0.68 -0.08,1.04 -0.78,1.09 -1.44,0.1 -0.86,-1.75 0.01,-2.03zm-0.17 -0.39c-0.33,0.13 -1.09,1.08 -1.13,1.56 -0.13,1.52 2.71,1.89 2.63,-0.39 -0.03,-0.57 -0.19,-0.68 -0.5,-0.92 -0.29,-0.22 -0.61,-0.41 -1,-0.25z"/>
   <path class="fil2" d="M73.41 57.49c0.05,0.39 0.34,1.19 0.58,1.44 0.21,0.22 0.9,0.71 1.24,0.7 -0.02,-0.59 -0.21,-1.49 -0.4,-2.01 -0.35,-0.99 -0.87,-0.44 -1.42,-0.13z"/>
   <path class="fil0" d="M29.6 82.33c0.69,-0.29 2.15,1.11 1.02,1.67 -0.62,0.3 -0.95,0.03 -1.17,-0.45 -0.2,-0.47 -0.44,-0.96 0.15,-1.22zm-0.08 -0.39c-1.4,0.53 -0.64,3.05 1.04,2.45 0.53,-0.19 1.2,-0.93 0.64,-1.66 -0.19,-0.25 -1.21,-0.97 -1.68,-0.79z"/>
   <path class="fil2" d="M74.09 72.44c-0.03,-0.08 -0.45,-0.89 0.25,-1.03 0.21,-0.05 0.4,0.01 0.56,0.06 0.14,0.61 -0.17,0.98 -0.81,0.97zm0.26 -1.65c-0.87,0.28 -1.45,2.13 -0.01,2.03 0.7,-0.05 0.77,-0.41 0.78,-1.09 0.01,-0.58 -0.17,-1.13 -0.77,-0.94z"/>
   <path class="fil2" d="M29.53 83.11c0.38,-0.48 0.88,-0.31 0.99,0.08 0.22,0.85 -0.98,0.67 -0.99,-0.08zm0.07 -0.78c-0.59,0.26 -0.35,0.75 -0.15,1.22 0.22,0.48 0.55,0.75 1.17,0.45 1.13,-0.56 -0.33,-1.96 -1.02,-1.67z"/>
   <path class="fil2" d="M20.1 58.22c-0.91,0.27 -0.45,1.67 0.61,1.24 0.71,-0.29 0.48,-1.57 -0.61,-1.24z"/>
   <path class="fil2" d="M24.74 72.98c0.31,-0.17 0.44,-0.48 0.61,-0.79l-0.66 -1.78c-0.7,0.12 -0.36,1.23 -0.19,1.95 0.07,0.28 0.08,0.41 0.24,0.62z"/>
   <path class="fil2" d="M76.88 56.04c0.03,0.57 0.37,1.37 0.52,1.86 0.58,-0.3 0.54,-1.6 0.45,-2.31 -0.38,0.03 -0.7,0.29 -0.97,0.45z"/>
   <path class="fil2" d="M22.14 72.36c0.01,-0.24 -0.06,-1.62 -0.25,-1.79 -0.25,-0.13 -0.63,-0.14 -0.95,-0.1 -0.02,0.3 0.24,0.79 0.39,1.05 0.2,0.36 0.37,0.72 0.81,0.84z"/>
   <path class="fil2" d="M26.16 44.16c0.41,0.25 0.73,0.23 0.91,-0.18 0.2,-0.46 -0.09,-0.8 -0.22,-1.19 -0.6,0.14 -0.84,0.62 -0.69,1.37z"/>
   <path class="fil6" d="M52.32 18.17c-0.01,1.66 1.83,1.7 3.25,1.02 0.57,-0.27 0.98,-0.36 0.97,-0.66 -0.64,0.14 -1.21,0.71 -2.16,0.85 -0.83,0.13 -2.06,-0.3 -1.81,-1.04 0.25,-0.13 0.16,-0.07 0.45,-0.01l-0.14 -0.27c-0.29,-0.03 -0.35,0.03 -0.56,0.11z"/>
   <path class="fil6" d="M70.03 14.5l0.03 0.54c0.29,-0.23 0.06,-0.21 0.23,-0.49l0.42 -0.04c0.21,0.35 0.2,0.64 -0.03,1.03 -0.7,1.23 -2.88,0.95 -3.04,0.97 -0.38,0.07 -0.13,-0.04 -0.23,0.19 1.62,0.31 4.32,-0.48 3.41,-2.35 -0.33,-0.04 -0.61,-0.01 -0.79,0.15z"/>
   <path class="fil2" d="M21.14 38.26c0.25,0.12 0.59,0.28 0.95,0.13 0.22,-0.1 0.41,-0.49 0.27,-0.81 -0.22,-0.48 -1.31,-0.37 -1.22,0.68z"/>
   <path class="fil6" d="M69.13 11.9l0.07 0.33c0.26,-0.24 0.1,-0.16 0.4,-0.21 0.81,2.16 -2.74,2.47 -2.91,2.53 -0.33,0.12 -0.11,-0.05 -0.18,0.18 0.94,0.09 4.31,-0.79 3.16,-2.94l-0.54 0.11z"/>
   <path class="fil2" d="M70.84 53.4l0.78 -0.06c0.05,-0.37 -0.23,-1.83 -0.38,-2.04 -0.23,0.29 -0.37,1.6 -0.4,2.1z"/>
   <path class="fil6" d="M52.22 15.46c0.02,1.06 0.55,1.64 1.43,1.89 0.79,0.23 1.59,-0.01 2.35,-0.25 0.37,-0.12 0.19,-0.03 0.24,-0.21 -0.19,-0.1 -0.73,0.22 -0.99,0.29 -1.55,0.37 -2.97,-0.38 -2.83,-1.6l0.65 -0.05c-0.28,-0.51 -0.46,-0.2 -0.85,-0.07z"/>
   <path class="fil6" d="M67.35 10.14c0.24,-0.16 0.27,-0.29 0.6,-0.33 0.78,0.75 0.27,2.49 -1.66,3.1 -0.1,0.04 -0.21,0.06 -0.31,0.08 -0.02,0.01 -0.09,0.03 -0.11,0.04 -0.11,0.05 -0.09,0.05 -0.14,0.09 0.07,0.06 -0.15,0.22 0.55,-0.06 0.89,-0.36 1.99,-0.76 2.16,-2.09 0.04,-0.29 0.01,-0.52 -0.07,-0.8 -0.09,-0.29 -0.17,-0.39 -0.34,-0.55 -0.53,0 -0.66,0.03 -0.68,0.52z"/>
   <path class="fil2" d="M75.11 51.66c0.37,0.12 0.54,0.06 0.84,-0.09 -0.13,-0.36 -0.52,-0.7 -0.8,-0.96 -0.04,-0.04 -0.13,-0.13 -0.16,-0.15 -0.21,-0.15 -0.01,-0.02 -0.22,-0.12 0.03,0.45 0.11,0.98 0.34,1.32z"/>
   <path class="fil0" d="M74.09 72.44c0.64,0.01 0.95,-0.36 0.81,-0.97 -0.16,-0.05 -0.35,-0.11 -0.56,-0.06 -0.7,0.14 -0.28,0.95 -0.25,1.03z"/>
   <path class="fil2" d="M87.93 53.81c-0.55,-0.28 -1.3,0.04 -1.03,0.57 0.21,0.43 1.03,0.37 1.03,-0.57z"/>
   <path class="fil2" d="M21.02 66.29c1.15,0.18 0.72,-0.84 0.58,-1.49 -0.11,0.08 -0.05,0 -0.14,0.11 -0.2,0.27 -0.46,1.09 -0.44,1.38z"/>
   <path class="fil0" d="M29.53 83.11c0.01,0.75 1.21,0.93 0.99,0.08 -0.11,-0.39 -0.61,-0.56 -0.99,-0.08z"/>
   <path class="fil2" d="M11.53 72.81c0.29,0.81 1.17,0.63 1.06,-0.17 -0.39,-0.27 -0.76,-0.3 -1.06,0.17z"/>
   <polygon class="fil7" points="24.14,69.74 24.48,69.86 24.16,68.86 "/>
   <path class="fil0" d="M80.11 129.17c0,0 0,0 0,0z"/>
   <path class="fil0" d="M76.13 146.35c4.21,1.27 2.88,-4.03 4.62,-8.84 0.5,-1.36 1.18,-0.83 1.84,-1.84 0.74,-1.12 -0.05,-1.48 -0.34,-2.25 -0.52,-1.34 0.77,-3.79 1.27,-5.06 0.7,-1.78 1.31,-3.31 1.97,-5.06 0.5,-1.33 2.24,-5.03 -1.02,-3.47 -2.97,1.42 -2.63,7.01 -4.41,9.18 -1.91,-1.52 -1.46,-6.69 -3.6,-7.81 -1.15,-0.42 -2.39,0.52 -2.64,1.39 -0.53,1.85 2.58,7.18 3.5,9.44 2.47,6.13 -2.31,9.9 -1.19,14.32z"/>
  </g>
 </g>
</svg>
